RobotoSerifText-SuperWdth530.ufo
<glyph name="three" format="2">
  <advance width="467.88"/>
  <unicode hex="0033"/>
  <outline>
    <contour>
      <point x="190.812" y="4.3999999999999915" type="curve" smooth="yes"/>
      <point x="235.046" y="4.3999999999999915"/>
      <point x="255.91" y="45.08"/>
      <point x="255.91" y="121.46" type="curve" smooth="yes"/>
      <point x="255.91" y="189.54"/>
      <point x="246.89600000000002" y="240.38"/>
      <point x="171.372" y="240.38" type="curve" smooth="yes"/>
      <point x="139.64600000000002" y="240.38" type="line"/>
      <point x="139.64600000000002" y="326.62" type="line"/>
      <point x="161.816" y="326.62" type="line" smooth="yes"/>
      <point x="228.164000000032" y="326.62"/>
      <point x="249.556" y="363.4145898305162"/>
      <point x="249.556" y="448.02" type="curve" smooth="yes"/>
      <point x="249.556" y="505.22"/>
      <point x="240.17716279071" y="528.04"/>
      <point x="219.336" y="528.04" type="curve" smooth="yes"/>
      <point x="200.00529192550601" y="528.04"/>
      <point x="186.069961817616" y="507.36703493323637"/>
      <point x="176.608" y="482.6" type="curve"/>
      <point x="171.86599999999999" y="489.64"/>
      <point x="169.336" y="535.72"/>
      <point x="197.57800000000003" y="538.86" type="curve"/>
      <point x="197.57800000000003" y="423.4" type="line"/>
      <point x="39.704" y="423.4" type="line"/>
      <point x="39.704" y="542.78" type="line"/>
      <point x="78.9933321612632" y="581.7502012306588"/>
      <point x="148.36853588517" y="618.0"/>
      <point x="242.66000000000003" y="618.0" type="curve" smooth="yes"/>
      <point x="355.207752293648" y="618.0"/>
      <point x="451.9" y="566.76"/>
      <point x="451.9" y="450.56" type="curve" smooth="yes"/>
      <point x="451.9" y="329.64"/>
      <point x="327.347228215754" y="276.7"/>
      <point x="171.878" y="276.7" type="curve"/>
      <point x="187.058" y="295.3" type="line"/>
      <point x="383.836" y="295.3"/>
      <point x="465.02" y="226.48"/>
      <point x="465.02" y="113.72" type="curve"/>
      <point x="465.02" y="-19.9"/>
      <point x="359.524" y="-90.0"/>
      <point x="232.116" y="-90.0" type="curve" smooth="yes"/>
      <point x="91.234" y="-90.0"/>
      <point x="34.008" y="-15.120000000000001"/>
      <point x="8.296000000000003" y="74.3" type="curve"/>
      <point x="90.04599999999999" y="128.2" type="line"/>
      <point x="108.168" y="76.53999999999999"/>
      <point x="133.174" y="4.3999999999999915"/>
    </contour>
  </outline>
</glyph>
<glyph name="five" format="2">
  <advance width="467.88"/>
  <unicode hex="0035"/>
  <outline>
    <contour>
      <point x="226.96200000000002" y="-90.0" type="curve" smooth="yes"/>
      <point x="102.99000000000001" y="-90.0"/>
      <point x="37.174" y="-19.7"/>
      <point x="6.390000000000001" y="71.64" type="curve"/>
      <point x="93.27" y="127.12" type="line"/>
      <point x="108.93656063811198" y="74.22027484577767"/>
      <point x="140.25799999999998" y="5.260000000000005"/>
      <point x="188.69400000000002" y="5.260000000000005" type="curve" smooth="yes"/>
      <point x="234.352" y="5.260000000000005"/>
      <point x="251.34400000000002" y="56.92"/>
      <point x="251.34400000000002" y="152.16" type="curve" smooth="yes"/>
      <point x="251.34400000000002" y="232.52"/>
      <point x="237.388" y="277.62"/>
      <point x="197.366" y="277.62" type="curve" smooth="yes"/>
      <point x="161.746" y="277.62"/>
      <point x="146.224" y="251.18"/>
      <point x="135.822" y="206.46" type="curve"/>
      <point x="50.212" y="206.46" type="line"/>
      <point x="50.212" y="609.0" type="line"/>
      <point x="412.796" y="609.0" type="line"/>
      <point x="401.864" y="460.62" type="line"/>
      <point x="131.95" y="460.62" type="line"/>
      <point x="143.412" y="589.0" type="line"/>
      <point x="143.412" y="276.0" type="line"/>
      <point x="139.046" y="262.56"/>
      <point x="129.808" y="258.0"/>
      <point x="119.5" y="268.82" type="curve"/>
      <point x="147.66" y="323.68"/>
      <point x="181.398" y="366.0"/>
      <point x="273.938" y="366.0" type="curve" smooth="yes"/>
      <point x="393.756" y="366.0"/>
      <point x="459.254" y="272.6"/>
      <point x="459.254" y="151.3" type="curve" smooth="yes"/>
      <point x="459.254" y="4.42"/>
      <point x="371.46799999999996" y="-90.0"/>
    </contour>
  </outline>
</glyph>
<glyph name="question" format="2">
  <advance width="503"/>
  <unicode hex="003F"/>
  <outline>
    <contour>
      <point x="175" y="390" type="line"/>
      <point x="239" y="421"/>
      <point x="272" y="474"/>
      <point x="272" y="549" type="curve" smooth="yes"/>
      <point x="272" y="596"/>
      <point x="262" y="629"/>
      <point x="222" y="629" type="curve" smooth="yes"/>
      <point x="193" y="629"/>
      <point x="173.0" y="612.0"/>
      <point x="160" y="589" type="curve"/>
      <point x="143" y="612"/>
      <point x="164" y="625"/>
      <point x="189" y="630" type="curve"/>
      <point x="189" y="527" type="line"/>
      <point x="20" y="527" type="line"/>
      <point x="20" y="648" type="line"/>
      <point x="49" y="676"/>
      <point x="125" y="723"/>
      <point x="249" y="723" type="curve" smooth="yes"/>
      <point x="415.0" y="723.0"/>
      <point x="487" y="645"/>
      <point x="487" y="537" type="curve" smooth="yes"/>
      <point x="487" y="409"/>
      <point x="379" y="360"/>
      <point x="287" y="335" type="curve"/>
      <point x="287" y="255" type="line"/>
      <point x="175" y="255" type="line"/>
    </contour>
    <component base="period" xOffset="76"/>
  </outline>
</glyph>
<glyph name="C" format="2">
  <advance width="571"/>
  <unicode hex="0043"/>
  <outline>
    <contour>
      <point x="358.79400000000004" y="625.32" type="curve" smooth="yes"/>
      <point x="404.076" y="625.32"/>
      <point x="425.128" y="568.06"/>
      <point x="446.322" y="480.52" type="curve"/>
      <point x="550.6179999999999" y="480.52" type="line"/>
      <point x="550.6179999999999" y="710.0" type="line"/>
      <point x="463.42" y="710.0" type="line"/>
      <point x="444.80400000000003" y="533.94" type="line"/>
      <point x="504.218" y="521.04" type="line"/>
      <point x="475.188" y="635.36"/>
      <point x="438.202" y="720.0"/>
      <point x="316.49" y="720.0" type="curve" smooth="yes"/>
      <point x="156.662" y="720.0"/>
      <point x="20.064" y="574.16"/>
      <point x="20.064" y="355.0" type="curve" smooth="yes"/>
      <point x="20.064" y="137.14"/>
      <point x="148.672" y="-10.0"/>
      <point x="331.152" y="-10.0" type="curve" smooth="yes"/>
      <point x="469.822" y="-10.0"/>
      <point x="532.508" y="90.0"/>
      <point x="555.36" y="236.44" type="curve"/>
      <point x="481.142" y="268.9" type="line"/>
      <point x="467.05600000000004" y="159.06"/>
      <point x="427.87" y="84.67999999999999"/>
      <point x="367.20799999999997" y="84.67999999999999" type="curve" smooth="yes"/>
      <point x="299.07399999999996" y="84.67999999999999"/>
      <point x="274.33799999999997" y="183.18"/>
      <point x="274.33799999999997" y="355.0" type="curve" smooth="yes"/>
      <point x="274.33799999999997" y="518.22"/>
      <point x="294.084" y="625.32"/>
    </contour>
  </outline>
</glyph>
<glyph name="R" format="2">
  <advance width="659"/>
  <unicode hex="0052"/>
  <anchor x="325" y="741.0" name="top"/>
  <anchor x="325" y="0.0" name="bottom"/>
  <outline>
    <contour>
      <point x="302" y="319" type="line"/>
      <point x="535" y="336" type="line"/>
      <point x="615" y="105" type="line" smooth="yes"/>
      <point x="623" y="83"/>
      <point x="629" y="77"/>
      <point x="640" y="77" type="curve" smooth="yes"/>
      <point x="647" y="77" type="line"/>
      <point x="647" y="0" type="line"/>
      <point x="398" y="0" type="line"/>
    </contour>
    <contour>
      <point x="14" y="0" type="line"/>
      <point x="14" y="77" type="line"/>
      <point x="23" y="77" type="line" smooth="yes"/>
      <point x="40" y="77"/>
      <point x="52" y="84"/>
      <point x="52" y="113" type="curve" smooth="yes"/>
      <point x="52" y="597" type="line" smooth="yes"/>
      <point x="52" y="626"/>
      <point x="40" y="633"/>
      <point x="23" y="633" type="curve" smooth="yes"/>
      <point x="14" y="633" type="line"/>
      <point x="14" y="710" type="line"/>
      <point x="381" y="710" type="line" smooth="yes"/>
      <point x="540" y="710"/>
      <point x="624" y="631"/>
      <point x="624" y="505" type="curve" smooth="yes"/>
      <point x="624" y="380"/>
      <point x="537" y="297"/>
      <point x="371" y="287" type="curve"/>
      <point x="371" y="285"/>
      <point x="360" y="285"/>
      <point x="357" y="285" type="curve"/>
      <point x="280" y="285" type="line"/>
      <point x="280" y="370" type="line"/>
      <point x="322" y="370" type="line" smooth="yes"/>
      <point x="359" y="370"/>
      <point x="375" y="421"/>
      <point x="375" y="505" type="curve" smooth="yes"/>
      <point x="375" y="579"/>
      <point x="359" y="624"/>
      <point x="327" y="624" type="curve" smooth="yes"/>
      <point x="297" y="624" type="line"/>
      <point x="297" y="87" type="line" smooth="yes"/>
      <point x="297" y="80"/>
      <point x="308" y="77"/>
      <point x="321" y="77" type="curve" smooth="yes"/>
      <point x="328" y="77" type="line"/>
      <point x="328" y="0" type="line"/>
    </contour>
  </outline>
</glyph>
<glyph name="d" format="2">
  <advance width="579"/>
  <unicode hex="0064"/>
  <anchor x="508" y="714" name="right"/>
  <anchor x="251" y="0.0" name="bottom"/>
  <outline>
    <contour>
      <point x="333" y="0" type="line"/>
      <point x="571" y="0" type="line"/>
      <point x="571" y="75" type="line"/>
      <point x="564" y="77" type="line"/>
      <point x="552" y="82"/>
      <point x="551" y="86"/>
      <point x="551" y="104" type="curve" smooth="yes"/>
      <point x="551" y="735" type="line"/>
      <point x="297" y="735" type="line"/>
      <point x="297" y="660" type="line"/>
      <point x="302" y="658" type="line"/>
      <point x="313" y="651"/>
      <point x="320" y="647"/>
      <point x="320" y="629" type="curve" smooth="yes"/>
      <point x="320" y="108" type="line"/>
      <point x="333" y="121" type="line"/>
    </contour>
    <contour>
      <point x="203" y="-10" type="curve" smooth="yes"/>
      <point x="290" y="-10"/>
      <point x="328" y="41"/>
      <point x="368" y="140" type="curve"/>
      <point x="368" y="253" type="line"/>
      <point x="328" y="143"/>
      <point x="316" y="97"/>
      <point x="288" y="97" type="curve" smooth="yes"/>
      <point x="260" y="97"/>
      <point x="250" y="150"/>
      <point x="250" y="250" type="curve" smooth="yes"/>
      <point x="250" y="352"/>
      <point x="261" y="416"/>
      <point x="296" y="416" type="curve" smooth="yes"/>
      <point x="329" y="416"/>
      <point x="338" y="372"/>
      <point x="368" y="280" type="curve"/>
      <point x="368" y="394" type="line"/>
      <point x="342" y="479"/>
      <point x="292" y="523"/>
      <point x="210" y="523" type="curve" smooth="yes"/>
      <point x="97" y="523"/>
      <point x="15" y="410"/>
      <point x="15" y="250" type="curve" smooth="yes"/>
      <point x="15" y="94"/>
      <point x="88" y="-10"/>
    </contour>
  </outline>
</glyph>
<glyph name="j" format="2">
  <advance width="276"/>
  <unicode hex="006A"/>
  <anchor x="132.68" y="551.0" name="top"/>
  <outline>
    <contour>
      <point x="28.135999999999996" y="-26.939999999999998" type="line" smooth="yes"/>
      <point x="28.135999999999996" y="-116.47999999999999"/>
      <point x="13.568000000000005" y="-145.62"/>
      <point x="-20.546" y="-145.62" type="curve" smooth="yes"/>
      <point x="-45.482" y="-145.62"/>
      <point x="-65.816" y="-135.46"/>
      <point x="-82.02000000000001" y="-127.46000000000001" type="curve"/>
      <point x="-82.02000000000001" y="-220.56" type="line"/>
      <point x="-69.782" y="-227.7"/>
      <point x="-25.936" y="-236.0"/>
      <point x="28.159999999999997" y="-236.0" type="curve" smooth="yes"/>
      <point x="192.93" y="-236.0"/>
      <point x="257.54600000000005" y="-172.5"/>
      <point x="257.54600000000005" y="0.5799999999999983" type="curve" smooth="yes"/>
      <point x="257.54600000000005" y="513.16" type="line"/>
      <point x="3.552713678800501e-15" y="513.16" type="line"/>
      <point x="3.552713678800501e-15" y="437.92" type="line"/>
      <point x="4.072000000000003" y="435.92" type="line" smooth="yes"/>
      <point x="15.474000000000004" y="429.78"/>
      <point x="28.135999999999996" y="425.08"/>
      <point x="28.135999999999996" y="407.26" type="curve" smooth="yes"/>
    </contour>
    <contour>
      <point x="141.764" y="564.8199999999999" type="curve" smooth="yes"/>
      <point x="213.7" y="564.8199999999999"/>
      <point x="255.616" y="599.0"/>
      <point x="255.616" y="656.78" type="curve" smooth="yes"/>
      <point x="255.616" y="714.42"/>
      <point x="213.7" y="748.6"/>
      <point x="141.764" y="748.6" type="curve" smooth="yes"/>
      <point x="68.064" y="748.6"/>
      <point x="27.442000000000004" y="714.42"/>
      <point x="27.442000000000004" y="656.78" type="curve" smooth="yes"/>
      <point x="27.442000000000004" y="598.14"/>
      <point x="68.064" y="564.8199999999999"/>
    </contour>
  </outline>
</glyph>
<glyph name="n" format="2">
  <advance width="581"/>
  <unicode hex="006E"/>
  <anchor x="267" y="551.0" name="top"/>
  <anchor x="274" y="0.0" name="bottom"/>
  <outline>
    <contour>
      <point x="9" y="0" type="line"/>
      <point x="278" y="0" type="line"/>
      <point x="278" y="72" type="line"/>
      <point x="275" y="72" type="line" smooth="yes"/>
      <point x="270" y="72"/>
      <point x="261" y="74"/>
      <point x="261" y="80" type="curve" smooth="yes"/>
      <point x="261" y="405" type="line"/>
      <point x="248" y="400" type="line"/>
      <point x="248" y="513" type="line"/>
      <point x="9" y="513" type="line"/>
      <point x="9" y="438" type="line"/>
      <point x="15" y="436" type="line" smooth="yes"/>
      <point x="27" y="429"/>
      <point x="29" y="425"/>
      <point x="29" y="407" type="curve" smooth="yes"/>
      <point x="29" y="99" type="line" smooth="yes"/>
      <point x="29" y="78"/>
      <point x="21" y="72"/>
      <point x="10" y="72" type="curve" smooth="yes"/>
      <point x="9" y="72" type="line"/>
    </contour>
    <contour>
      <point x="574" y="0" type="line"/>
      <point x="574" y="72" type="line"/>
      <point x="572" y="72" type="line" smooth="yes"/>
      <point x="562" y="72"/>
      <point x="554" y="78"/>
      <point x="554" y="99" type="curve"/>
      <point x="554" y="345" type="line" smooth="yes"/>
      <point x="554" y="461"/>
      <point x="494" y="523"/>
      <point x="403" y="523" type="curve" smooth="yes"/>
      <point x="323" y="523"/>
      <point x="258" y="473"/>
      <point x="239" y="394" type="curve"/>
      <point x="239" y="285" type="line"/>
      <point x="259" y="367"/>
      <point x="276" y="407"/>
      <point x="302" y="407" type="curve" smooth="yes"/>
      <point x="316" y="407"/>
      <point x="323" y="388"/>
      <point x="323" y="351" type="curve" smooth="yes"/>
      <point x="323" y="80" type="line" smooth="yes"/>
      <point x="323" y="74"/>
      <point x="313" y="72"/>
      <point x="306" y="72" type="curve" smooth="yes"/>
      <point x="306" y="72" type="line"/>
      <point x="306" y="0" type="line"/>
    </contour>
  </outline>
</glyph>
<glyph name="cent" format="2">
  <advance width="467.88"/>
  <unicode hex="00A2"/>
  <outline>
    <contour>
      <point x="222.478" y="623.0" type="line"/>
      <point x="222.478" y="470.52" type="line"/>
      <point x="244.36599999999999" y="455.08" type="line"/>
      <point x="244.36599999999999" y="54.66" type="line"/>
      <point x="222.478" y="37.66" type="line"/>
      <point x="222.478" y="-126.0" type="line"/>
      <point x="322.456" y="-126.0" type="line"/>
      <point x="322.456" y="28.6" type="line"/>
      <point x="300.568" y="43.32" type="line"/>
      <point x="300.568" y="462.24" type="line"/>
      <point x="322.456" y="478.66" type="line"/>
      <point x="322.456" y="623.0" type="line"/>
    </contour>
    <contour>
      <point x="301.074" y="74.66" type="curve" smooth="yes"/>
      <point x="244.45999999999998" y="74.66"/>
      <point x="214.71200000000002" y="121.3372994150794"/>
      <point x="214.71200000000002" y="254.02" type="curve" smooth="yes"/>
      <point x="214.71200000000002" y="381.81488571422057"/>
      <point x="218.654" y="437.64"/>
      <point x="281.528" y="437.64" type="curve" smooth="yes"/>
      <point x="321.55" y="437.64"/>
      <point x="327.21000000000004" y="419.86"/>
      <point x="332.906" y="404.06" type="curve"/>
      <point x="376.278960342568" y="390.8862508890556"/>
      <point x="401.934259825452" y="434.2016877772586"/>
      <point x="316.89" y="458.78" type="curve"/>
      <point x="316.89" y="325.56" type="line"/>
      <point x="447.416" y="325.56" type="line"/>
      <point x="447.416" y="465.06" type="line"/>
      <point x="425.64599999999996" y="484.62"/>
      <point x="377.846" y="523.16"/>
      <point x="267.548" y="523.16" type="curve" smooth="yes"/>
      <point x="117.794" y="523.16"/>
      <point x="13.674000000000003" y="422.92"/>
      <point x="13.674000000000003" y="254.02" type="curve" smooth="yes"/>
      <point x="13.674000000000003" y="84.24"/>
      <point x="121.606" y="-13.44"/>
      <point x="264.512" y="-13.44" type="curve" smooth="yes"/>
      <point x="371.468" y="-13.44"/>
      <point x="422.092" y="48.44"/>
      <point x="458.442" y="134.36" type="curve"/>
      <point x="392.108" y="181.24" type="line"/>
      <point x="372.94329545742403" y="134.5426833374384"/>
      <point x="343.638" y="74.66"/>
    </contour>
  </outline>
</glyph>
<glyph name="currency" format="2">
  <advance width="467.88"/>
  <unicode hex="00A4"/>
  <outline>
    <contour>
      <point x="280.74" y="373.0" type="curve" smooth="yes"/>
      <point x="280.74" y="323.9143860869662"/>
      <point x="263.01800000000003" y="291.6"/>
      <point x="233.94" y="291.6" type="curve" smooth="yes"/>
      <point x="203.662" y="291.6"/>
      <point x="187.14" y="324.0516976811734"/>
      <point x="187.14" y="373.0" type="curve" smooth="yes"/>
      <point x="187.14" y="421.420353824511"/>
      <point x="203.662" y="454.54"/>
      <point x="233.94" y="454.54" type="curve" smooth="yes"/>
      <point x="263.01800000000003" y="454.54"/>
      <point x="280.74" y="421.420353824511"/>
    </contour>
    <contour>
      <point x="44.964" y="373.0" type="curve" smooth="yes"/>
      <point x="44.964" y="244.6732221153732"/>
      <point x="126.596" y="152.8"/>
      <point x="233.94" y="152.8" type="curve" smooth="yes"/>
      <point x="342.48400000000004" y="152.8"/>
      <point x="422.916" y="244.6732221153732"/>
      <point x="422.916" y="373.0" type="curve" smooth="yes"/>
      <point x="422.916" y="501.4660354067046"/>
      <point x="342.48400000000004" y="593.34"/>
      <point x="233.94" y="593.34" type="curve" smooth="yes"/>
      <point x="126.596" y="593.34"/>
      <point x="44.964" y="501.4660354067046"/>
    </contour>
    <contour>
      <point x="4.259999999999998" y="564.94" type="line"/>
      <point x="97.612" y="455.92" type="line"/>
      <point x="191.824" y="539.48" type="line"/>
      <point x="92.976" y="655.5" type="line"/>
    </contour>
    <contour>
      <point x="463.62" y="564.94" type="line"/>
      <point x="374.904" y="655.5" type="line"/>
      <point x="276.056" y="539.48" type="line"/>
      <point x="370.26800000000003" y="455.92" type="line"/>
    </contour>
    <contour>
      <point x="4.259999999999998" y="181.06" type="line"/>
      <point x="92.976" y="90.5" type="line"/>
      <point x="191.824" y="206.52" type="line"/>
      <point x="97.612" y="290.08" type="line"/>
    </contour>
    <contour>
      <point x="463.62" y="181.06" type="line"/>
      <point x="370.26800000000003" y="290.08" type="line"/>
      <point x="276.056" y="206.52" type="line"/>
      <point x="374.904" y="90.5" type="line"/>
    </contour>
  </outline>
</glyph>
<glyph name="ordfeminine" format="2">
  <advance width="435.966"/>
  <unicode hex="00AA"/>
  <outline>
    <contour>
      <point x="240.412" y="556.84" type="line"/>
      <point x="83.644" y="534.68"/>
      <point x="9.908000000000001" y="502.84"/>
      <point x="9.908000000000001" y="417.56" type="curve" smooth="yes"/>
      <point x="9.908000000000001" y="347.42"/>
      <point x="52.354" y="311.72"/>
      <point x="134.186" y="311.72" type="curve" smooth="yes"/>
      <point x="204.45" y="311.72"/>
      <point x="235.458" y="346.56"/>
      <point x="260.77" y="417.9" type="curve"/>
      <point x="292.366" y="472.08"/>
      <point x="239.0" y="450.32"/>
      <point x="238.176" y="449.46" type="curve"/>
      <point x="235.646" y="415.64"/>
      <point x="225.832" y="388.38"/>
      <point x="211.24" y="388.38" type="curve" smooth="yes"/>
      <point x="197.366" y="388.38"/>
      <point x="191.41199999999998" y="401.2"/>
      <point x="191.41199999999998" y="428.02" type="curve" smooth="yes"/>
      <point x="191.41199999999998" y="462.52"/>
      <point x="204.462" y="496.24"/>
      <point x="240.612" y="505.1" type="curve"/>
    </contour>
    <contour>
      <point x="240.142" y="320.0" type="line"/>
      <point x="429.612" y="320.0" type="line"/>
      <point x="429.612" y="382.5" type="line"/>
      <point x="424.74" y="384.22" type="line" smooth="yes"/>
      <point x="416.63200000000006" y="389.38"/>
      <point x="414.02" y="390.8"/>
      <point x="414.02" y="404.62" type="curve" smooth="yes"/>
      <point x="414.02" y="575.22" type="line" smooth="yes"/>
      <point x="414.02" y="673.52"/>
      <point x="332.188" y="720.0"/>
      <point x="222.902" y="720.0" type="curve" smooth="yes"/>
      <point x="119.818" y="720.0"/>
      <point x="56.29600000000001" y="685.68"/>
      <point x="33.82000000000001" y="646.64" type="curve"/>
      <point x="33.82000000000001" y="586.66" type="line"/>
      <point x="178.856" y="586.66" type="line"/>
      <point x="178.856" y="657.68" type="line"/>
      <point x="145.236" y="654.4"/>
      <point x="136.81" y="624.92"/>
      <point x="165.994" y="605.24" type="curve"/>
      <point x="172.066" y="627.5"/>
      <point x="185.23399999999998" y="643.62"/>
      <point x="203.66199999999998" y="643.62" type="curve" smooth="yes"/>
      <point x="221.784" y="643.62"/>
      <point x="232.61" y="628.94"/>
      <point x="232.61" y="593.3" type="curve" smooth="yes"/>
      <point x="232.61" y="390.96" type="line"/>
      <point x="240.142" y="401.86" type="line"/>
    </contour>
  </outline>
</glyph>
<glyph name="logicalnot" format="2">
  <advance width="467.88"/>
  <unicode hex="00AC"/>
  <outline>
    <contour>
      <point x="287.836" y="333.8" type="line"/>
      <point x="287.836" y="133.64" type="line"/>
      <point x="426.776" y="133.64" type="line"/>
      <point x="426.776" y="408.84" type="line"/>
      <point x="41.10400000000001" y="408.84" type="line"/>
      <point x="41.10400000000001" y="279.18" type="line"/>
      <point x="321.95000000000005" y="279.18" type="line"/>
    </contour>
  </outline>
</glyph>
<glyph name="tbar" format="2">
  <advance width="367"/>
  <unicode hex="0167"/>
  <outline>
    <contour>
      <point x="356.806" y="331.74" type="line"/>
      <point x="-1.3179999999999996" y="331.74" type="line"/>
      <point x="-1.3179999999999996" y="242.76" type="line"/>
      <point x="356.806" y="242.76" type="line"/>
    </contour>
    <component base="t" xOffset="-34.68599999999999"/>
  </outline>
</glyph>
<glyph name="Oogonek" format="2">
  <advance width="683.956"/>
  <unicode hex="01EA"/>
  <outline>
    <contour>
      <point x="341.978" y="84.39999999999999" type="curve" smooth="yes"/>
      <point x="297.556" y="84.39999999999999"/>
      <point x="274.33799999999997" y="177.46"/>
      <point x="274.33799999999997" y="355.0" type="curve" smooth="yes"/>
      <point x="274.33799999999997" y="532.54"/>
      <point x="297.756" y="625.6"/>
      <point x="341.978" y="625.6" type="curve" smooth="yes"/>
      <point x="385.836" y="625.6"/>
      <point x="408.96000000000004" y="532.54"/>
      <point x="408.96000000000004" y="355.0" type="curve" smooth="yes"/>
      <point x="408.96000000000004" y="177.46"/>
      <point x="385.836" y="84.39999999999999"/>
    </contour>
    <contour>
      <point x="477.40000000000003" y="32.72" type="line"/>
      <point x="325.786" y="-8.959999999999999"/>
      <point x="244.484" y="-56.08"/>
      <point x="244.484" y="-139.84" type="curve" smooth="yes"/>
      <point x="244.484" y="-208.02"/>
      <point x="295.214" y="-244.6"/>
      <point x="372.798" y="-244.6" type="curve" smooth="yes"/>
      <point x="447.428" y="-244.6"/>
      <point x="490.25" y="-214.42"/>
      <point x="521.9639999999999" y="-169.36" type="curve"/>
      <point x="478.812" y="-119.88" type="line"/>
      <point x="470.634" y="-129.3"/>
      <point x="456.654" y="-147.88"/>
      <point x="434.74199999999996" y="-147.88" type="curve" smooth="yes"/>
      <point x="415.502" y="-147.88"/>
      <point x="403.794" y="-134.6"/>
      <point x="403.794" y="-106.75999999999999" type="curve" smooth="yes"/>
      <point x="403.794" y="-23.939999999999998"/>
      <point x="485.002000000212" y="-13.631933333318141"/>
      <point x="585.7560000000001" y="94.06" type="curve" smooth="yes"/>
      <point x="634.886" y="157.76"/>
      <point x="663.234" y="251.6"/>
      <point x="663.234" y="355.0" type="curve" smooth="yes"/>
      <point x="663.234" y="575.44"/>
      <point x="533.308" y="720.0"/>
      <point x="341.978" y="720.0" type="curve" smooth="yes"/>
      <point x="150.084" y="720.0"/>
      <point x="20.064" y="575.44"/>
      <point x="20.064" y="355.0" type="curve" smooth="yes"/>
      <point x="20.064" y="133.84"/>
      <point x="150.084" y="-10.0"/>
      <point x="341.978" y="-10.0" type="curve" smooth="yes"/>
      <point x="383.306" y="-10.0"/>
      <point x="421.798" y="-3.14"/>
      <point x="457.866" y="8.86" type="curve"/>
    </contour>
  </outline>
</glyph>
<glyph name="circumflex" format="2">
  <advance width="418.408"/>
  <unicode hex="02C6"/>
  <anchor x="204.58" y="529.0" name="_top"/>
  <outline>
    <contour>
      <point x="311.63" y="729.4" type="line"/>
      <point x="411.87800000000004" y="581.0" type="line"/>
      <point x="411.87800000000004" y="555.52" type="line"/>
      <point x="317.278" y="555.52" type="line"/>
      <point x="153.95600000000002" y="661.78" type="line"/>
      <point x="296.414" y="661.78" type="line"/>
      <point x="131.256" y="555.52" type="line"/>
      <point x="45.976000000000006" y="555.52" type="line"/>
      <point x="45.976000000000006" y="581.0" type="line"/>
      <point x="146.86" y="729.4" type="line"/>
    </contour>
  </outline>
</glyph>
<glyph name="mu" format="2">
  <advance width="687.4639999999999"/>
  <unicode hex="03BC"/>
  <outline>
    <contour>
      <point x="501.076" y="-10.0" type="curve" smooth="yes"/>
      <point x="606.914" y="-10.0"/>
      <point x="657.056" y="51.68"/>
      <point x="679.4380000000001" y="131.07999999999998" type="curve"/>
      <point x="604.078" y="169.95999999999998" type="line"/>
      <point x="595.3" y="130.06"/>
      <point x="587.992" y="105.76"/>
      <point x="570.988" y="105.76" type="curve" smooth="yes"/>
      <point x="555.584" y="105.76"/>
      <point x="551.736" y="116.9"/>
      <point x="551.736" y="143.01999999999998" type="curve" smooth="yes"/>
      <point x="551.736" y="513.16" type="line"/>
      <point x="321.126" y="513.16" type="line"/>
      <point x="321.126" y="123.34" type="line"/>
      <point x="330.552" y="126.68" type="line"/>
      <point x="338.766" y="38.32"/>
      <point x="399.004" y="-10.0"/>
    </contour>
    <contour>
      <point x="61.368" y="163.92000000000002" type="curve"/>
      <point x="94.588" y="33.2"/>
      <point x="150.002" y="-10.14"/>
      <point x="217.23000000000002" y="-10.14" type="curve" smooth="yes"/>
      <point x="271.926" y="-10.14"/>
      <point x="311.5" y="34.68"/>
      <point x="341.896" y="136.34" type="curve"/>
      <point x="319.538" y="188.14" type="line"/>
      <point x="310.724" y="137.7"/>
      <point x="298.55600000000004" y="106.18"/>
      <point x="280.53999999999996" y="106.18" type="curve" smooth="yes"/>
      <point x="266.548" y="106.18"/>
      <point x="261.794" y="125.97999999999999"/>
      <point x="261.794" y="168.66" type="curve" smooth="yes"/>
      <point x="261.794" y="513.16" type="line"/>
      <point x="31.184" y="513.16" type="line"/>
      <point x="31.184" y="-250.0" type="line"/>
      <point x="260.88800000000003" y="-250.0" type="line"/>
      <point x="260.88800000000003" y="-103.96000000000001"/>
      <point x="86.868" y="-40.3"/>
      <point x="74.018" y="189.0" type="curve"/>
      <point x="60.544" y="238.7"/>
      <point x="73.44200000000001" y="181.32"/>
    </contour>
  </outline>
</glyph>
<glyph name="naira" format="2">
  <advance width="467.88"/>
  <unicode hex="20A6"/>
  <outline>
    <contour>
      <point x="87.41" y="692.56" type="line"/>
      <point x="204.95600000000002" y="0.0" type="line"/>
      <point x="426.34000000000003" y="0.0" type="line"/>
      <point x="426.34000000000003" y="596.2" type="line" smooth="yes"/>
      <point x="426.34000000000003" y="625.2"/>
      <point x="438.002" y="632.9"/>
      <point x="454.324" y="632.9" type="curve" smooth="yes"/>
      <point x="460.972" y="632.9" type="line"/>
      <point x="460.972" y="710.0" type="line"/>
      <point x="317.984" y="710.0" type="line"/>
      <point x="317.984" y="632.9" type="line"/>
      <point x="322.26800000000003" y="632.9" type="line" smooth="yes"/>
      <point x="334.09982857115597" y="632.9"/>
      <point x="344.52" y="624.9"/>
      <point x="344.52" y="617.9" type="curve" smooth="yes"/>
      <point x="344.52" y="59.08" type="line"/>
      <point x="385.26" y="20.860000000000003" type="line"/>
      <point x="276.774" y="710.0" type="line"/>
      <point x="6.908" y="710.0" type="line"/>
      <point x="6.908" y="632.9" type="line"/>
      <point x="13.556000000000001" y="632.9" type="line" smooth="yes"/>
      <point x="29.878000000000004" y="632.9"/>
      <point x="41.540000000000006" y="625.9"/>
      <point x="41.540000000000006" y="596.9" type="curve" smooth="yes"/>
      <point x="41.540000000000006" y="118.1" type="line" smooth="yes"/>
      <point x="41.540000000000006" y="89.1"/>
      <point x="29.878000000000004" y="77.1"/>
      <point x="13.556000000000001" y="77.1" type="curve" smooth="yes"/>
      <point x="6.908" y="77.1" type="line"/>
      <point x="6.908" y="0.0" type="line"/>
      <point x="152.93200000000002" y="0.0" type="line"/>
      <point x="152.93200000000002" y="77.1" type="line"/>
      <point x="148.648" y="77.1" type="line" smooth="yes"/>
      <point x="135.304461538168" y="77.1"/>
      <point x="123.36000000000001" y="85.1"/>
      <point x="123.36000000000001" y="92.1" type="curve" smooth="yes"/>
      <point x="123.36000000000001" y="672.78" type="line"/>
    </contour>
    <contour>
      <point x="72.736" y="506.15999999999997" type="line"/>
      <point x="7.72" y="506.15999999999997" type="line"/>
      <point x="7.72" y="430.08" type="line"/>
      <point x="73.136" y="430.08" type="line"/>
    </contour>
    <contour>
      <point x="204.78" y="438.68" type="line"/>
      <point x="375.528" y="438.68" type="line"/>
      <point x="387.872" y="430.08" type="line"/>
      <point x="460.16" y="430.08" type="line"/>
      <point x="460.16" y="506.15999999999997" type="line"/>
      <point x="209.122" y="506.15999999999997" type="line"/>
    </contour>
    <contour>
      <point x="390.92" y="253.02" type="line"/>
      <point x="460.16" y="253.02" type="line"/>
      <point x="460.16" y="329.1" type="line"/>
      <point x="390.52" y="329.1" type="line"/>
    </contour>
    <contour>
      <point x="287.906" y="320.5" type="line"/>
      <point x="92.564" y="320.5" type="line"/>
      <point x="86.092" y="329.1" type="line"/>
      <point x="7.72" y="329.1" type="line"/>
      <point x="7.72" y="253.02" type="line"/>
      <point x="283.446" y="253.02" type="line"/>
    </contour>
  </outline>
</glyph>
<glyph name="peseta" format="2">
  <advance width="467.88"/>
  <unicode hex="20A7"/>
  <outline>
    <contour>
      <point x="9.237999999999998" y="0.0" type="line"/>
      <point x="181.198" y="0.0" type="line"/>
      <point x="181.198" y="77.1" type="line"/>
      <point x="178.14999999999998" y="77.1" type="line" smooth="yes"/>
      <point x="167.20600000000002" y="77.1"/>
      <point x="155.25" y="80.1"/>
      <point x="155.25" y="85.38" type="curve" smooth="yes"/>
      <point x="155.25" y="255.0" type="line"/>
      <point x="156.756" y="255.0" type="line" smooth="yes"/>
      <point x="252.462" y="255.0"/>
      <point x="304.31" y="363.76"/>
      <point x="304.31" y="486.0" type="curve" smooth="yes"/>
      <point x="304.31" y="622.0"/>
      <point x="251.85000000000002" y="710.0"/>
      <point x="145.636" y="710.0" type="curve" smooth="yes"/>
      <point x="9.237999999999998" y="710.0" type="line"/>
      <point x="9.237999999999998" y="632.9" type="line"/>
      <point x="9.626000000000001" y="632.9" type="line" smooth="yes"/>
      <point x="16.192" y="632.9"/>
      <point x="20.464000000000006" y="628.48"/>
      <point x="20.464000000000006" y="608.08" type="curve" smooth="yes"/>
      <point x="20.464000000000006" y="101.92" type="line" smooth="yes"/>
      <point x="20.464000000000006" y="81.52000000000001"/>
      <point x="16.192" y="77.1"/>
      <point x="9.626000000000001" y="77.1" type="curve" smooth="yes"/>
      <point x="9.237999999999998" y="77.1" type="line"/>
    </contour>
    <contour>
      <point x="157.474" y="616.02" type="line" smooth="yes"/>
      <point x="166.476" y="616.02"/>
      <point x="171.76000000000002" y="571.94"/>
      <point x="171.76000000000002" y="485.0" type="curve" smooth="yes"/>
      <point x="171.76000000000002" y="398.06"/>
      <point x="168.512" y="348.7"/>
      <point x="158.286" y="348.7" type="curve" smooth="yes"/>
      <point x="155.25" y="348.7" type="line"/>
      <point x="155.25" y="616.02" type="line"/>
    </contour>
    <contour>
      <point x="271.596" y="416.6" type="line"/>
      <point x="466.55" y="416.6" type="line"/>
      <point x="466.55" y="508.0" type="line"/>
      <point x="357.37" y="508.0" type="line"/>
      <point x="325.61" y="566.4" type="line"/>
      <point x="325.61" y="514.0"/>
      <point x="314.336" y="503.0"/>
      <point x="289.954" y="503.0" type="curve" smooth="yes"/>
      <point x="271.596" y="503.0" type="line"/>
    </contour>
    <contour>
      <point x="434.578" y="121.76" type="curve" smooth="yes"/>
      <point x="434.578" y="648.0" type="line"/>
      <point x="325.61" y="648.0" type="line"/>
      <point x="325.61" y="500.0" type="line"/>
      <point x="297.25" y="492.0" type="line"/>
      <point x="297.25" y="109.0" type="line" smooth="yes"/>
      <point x="297.25" y="21.0"/>
      <point x="345.262461538168" y="-11.0"/>
      <point x="413.196" y="-11.0" type="curve" smooth="yes"/>
      <point x="440.238" y="-11.0"/>
      <point x="454.08799999999997" y="-8.0"/>
      <point x="466.55" y="-3.2800000000000002" type="curve"/>
      <point x="466.55" y="89.4" type="line"/>
      <point x="465.138" y="87.97999999999999"/>
      <point x="456.85400000000004" y="85.97999999999999"/>
      <point x="452.80600000000004" y="85.97999999999999" type="curve" smooth="yes"/>
      <point x="441.156" y="85.97999999999999"/>
      <point x="434.578" y="96.96000000000001"/>
    </contour>
  </outline>
</glyph>
<glyph name="numero" format="2">
  <advance width="1047"/>
  <unicode hex="2116"/>
  <outline>
    <contour>
      <point x="658.88" y="237.14" type="line"/>
      <point x="981.524" y="237.14" type="line"/>
      <point x="981.524" y="139.14" type="line"/>
      <point x="658.88" y="139.14" type="line"/>
    </contour>
    <component base="N" xOffset="-96.72599999999998"/>
    <component base="ordmasculine" xOffset="607.0740000000001"/>
  </outline>
</glyph>
<glyph name="servicemark" format="2">
  <advance width="791.4179999999999"/>
  <unicode hex="2120"/>
  <outline>
    <contour>
      <point x="342.108" y="372.64" type="line"/>
      <point x="429.38800000000003" y="372.64" type="line"/>
      <point x="429.38800000000003" y="418.82" type="line"/>
      <point x="426.658" y="418.82" type="line" smooth="yes"/>
      <point x="418.068" y="418.82"/>
      <point x="410.572" y="420.1"/>
      <point x="410.572" y="422.96" type="curve" smooth="yes"/>
      <point x="410.572" y="701.14" type="line"/>
      <point x="400.64" y="700.14" type="line"/>
      <point x="472.752" y="371.64" type="line"/>
      <point x="555.066" y="371.64" type="line"/>
      <point x="631.014" y="699.28" type="line"/>
      <point x="620.718" y="700.14" type="line"/>
      <point x="620.718" y="422.96" type="line" smooth="yes"/>
      <point x="620.718" y="420.1"/>
      <point x="614.01" y="418.82"/>
      <point x="605.6320000000001" y="418.82" type="curve" smooth="yes"/>
      <point x="602.466" y="418.82" type="line"/>
      <point x="602.466" y="372.64" type="line"/>
      <point x="760.682" y="372.64" type="line"/>
      <point x="760.682" y="418.82" type="line"/>
      <point x="758.222" y="418.82" type="line" smooth="yes"/>
      <point x="749.726" y="418.82"/>
      <point x="744.348" y="421.96"/>
      <point x="744.348" y="434.96" type="curve" smooth="yes"/>
      <point x="744.348" y="647.82" type="line" smooth="yes"/>
      <point x="744.348" y="661.82"/>
      <point x="749.726" y="664.68"/>
      <point x="758.222" y="664.68" type="curve" smooth="yes"/>
      <point x="760.682" y="664.68" type="line"/>
      <point x="760.682" y="710.0" type="line"/>
      <point x="577.542" y="710.0" type="line"/>
      <point x="510.20799999999997" y="415.22" type="line"/>
      <point x="560.056" y="477.0" type="line"/>
      <point x="526.5060000000001" y="710.0" type="line"/>
      <point x="342.108" y="710.0" type="line"/>
      <point x="342.108" y="664.68" type="line"/>
      <point x="345.968" y="664.68" type="line" smooth="yes"/>
      <point x="353.934" y="664.68"/>
      <point x="359.00600000000003" y="661.82"/>
      <point x="359.00600000000003" y="647.82" type="curve" smooth="yes"/>
      <point x="359.00600000000003" y="434.96" type="line" smooth="yes"/>
      <point x="359.00600000000003" y="421.96"/>
      <point x="353.934" y="418.82"/>
      <point x="345.968" y="418.82" type="curve"/>
      <point x="342.108" y="418.82" type="line"/>
    </contour>
    <contour>
      <point x="173.89" y="416.68" type="curve" smooth="yes"/>
      <point x="126.808" y="416.68"/>
      <point x="100.593138424556" y="446.94993209269444"/>
      <point x="88.61" y="489.4" type="curve"/>
      <point x="36.480000000000004" y="489.4" type="line"/>
      <point x="36.480000000000004" y="369.5" type="line"/>
      <point x="78.678" y="369.5" type="line"/>
      <point x="85.468" y="454.08" type="line"/>
      <point x="79.31400000000001" y="462.38"/>
      <point x="67.158" y="463.42"/>
      <point x="54.084" y="479.58" type="curve"/>
      <point x="59.956" y="403.68"/>
      <point x="96.93" y="366.22"/>
      <point x="185.528" y="366.22" type="curve" smooth="yes"/>
      <point x="260.382" y="366.22"/>
      <point x="311.7" y="404.52"/>
      <point x="311.7" y="484.42" type="curve" smooth="yes"/>
      <point x="311.7" y="555.587110344749"/>
      <point x="269.330901249588" y="584.318640635413"/>
      <point x="194.566" y="603.2" type="curve" smooth="yes"/>
      <point x="167.42514864696003" y="611.7548975551044"/>
      <point x="147.26" y="617.0107028573382"/>
      <point x="147.26" y="640.0" type="curve" smooth="yes"/>
      <point x="147.26" y="657.268627906994"/>
      <point x="157.262" y="666.24"/>
      <point x="175.208" y="666.24" type="curve" smooth="yes"/>
      <point x="213.476" y="666.24"/>
      <point x="232.024501697608" y="642.7462439081309"/>
      <point x="243.55399999999997" y="616.4" type="curve"/>
      <point x="291.848" y="616.4" type="line"/>
      <point x="291.848" y="714.28" type="line"/>
      <point x="251.65" y="714.28" type="line"/>
      <point x="241.918" y="643.28" type="line"/>
      <point x="251.344" y="632.84"/>
      <point x="271.326" y="637.26"/>
      <point x="275.44399999999996" y="633.96" type="curve"/>
      <point x="260.77" y="692.82"/>
      <point x="219.878" y="716.56"/>
      <point x="164.076" y="716.56" type="curve" smooth="yes"/>
      <point x="89.516" y="716.56"/>
      <point x="44.764" y="680.26"/>
      <point x="44.764" y="611.5" type="curve" smooth="yes"/>
      <point x="44.764" y="532.5920730436368"/>
      <point x="100.636526564276" y="509.1884601529116"/>
      <point x="148.684" y="493.3" type="curve" smooth="yes"/>
      <point x="195.725205956092" y="478.16995677141483"/>
      <point x="207.11" y="470.9521"/>
      <point x="207.11" y="447.92" type="curve" smooth="yes"/>
      <point x="207.11" y="427.38"/>
      <point x="194.636" y="416.68"/>
    </contour>
  </outline>
</glyph>
<glyph name="trademark" format="2">
  <advance width="800.4559999999999"/>
  <unicode hex="2122"/>
  <outline>
    <contour>
      <point x="14.897999999999996" y="710.0" type="line"/>
      <point x="14.897999999999996" y="585.08" type="line"/>
      <point x="70.076" y="585.08" type="line"/>
      <point x="72.406" y="640.82" type="line" smooth="yes"/>
      <point x="72.936" y="658.26"/>
      <point x="83.55" y="664.4"/>
      <point x="111.298" y="664.4" type="curve" smooth="yes"/>
      <point x="110.486" y="664.4" type="line"/>
      <point x="110.486" y="434.96" type="line" smooth="yes"/>
      <point x="110.486" y="421.96"/>
      <point x="105.414" y="418.82"/>
      <point x="98.11800000000001" y="418.82" type="curve" smooth="yes"/>
      <point x="92.56400000000001" y="418.82" type="line"/>
      <point x="92.56400000000001" y="372.64" type="line"/>
      <point x="251.78" y="372.64" type="line"/>
      <point x="251.78" y="418.82" type="line"/>
      <point x="246.79" y="418.82" type="line" smooth="yes"/>
      <point x="239.494" y="418.82"/>
      <point x="233.858" y="421.96"/>
      <point x="233.858" y="434.96" type="curve" smooth="yes"/>
      <point x="233.858" y="664.4" type="line"/>
      <point x="233.046" y="664.4" type="line" smooth="yes"/>
      <point x="261.264" y="664.4"/>
      <point x="271.408" y="658.26"/>
      <point x="272.408" y="640.82" type="curve" smooth="yes"/>
      <point x="275.468" y="585.08" type="line"/>
      <point x="329.446" y="585.08" type="line"/>
      <point x="329.446" y="710.0" type="line"/>
    </contour>
    <contour>
      <point x="351.71" y="372.64" type="line"/>
      <point x="438.426" y="372.64" type="line"/>
      <point x="438.426" y="418.82" type="line"/>
      <point x="435.79" y="418.82" type="line" smooth="yes"/>
      <point x="427.67" y="418.82"/>
      <point x="420.26800000000003" y="420.1"/>
      <point x="420.26800000000003" y="422.96" type="curve" smooth="yes"/>
      <point x="420.26800000000003" y="701.14" type="line"/>
      <point x="410.336" y="700.14" type="line"/>
      <point x="482.35400000000004" y="371.64" type="line"/>
      <point x="564.198" y="371.64" type="line"/>
      <point x="640.146" y="699.28" type="line"/>
      <point x="630.3199999999999" y="700.14" type="line"/>
      <point x="630.3199999999999" y="422.96" type="line" smooth="yes"/>
      <point x="630.3199999999999" y="420.1"/>
      <point x="623.048" y="418.82"/>
      <point x="615.328" y="418.82" type="curve" smooth="yes"/>
      <point x="611.598" y="418.82" type="line"/>
      <point x="611.598" y="372.64" type="line"/>
      <point x="770.3779999999999" y="372.64" type="line"/>
      <point x="770.3779999999999" y="418.82" type="line"/>
      <point x="767.26" y="418.82" type="line" smooth="yes"/>
      <point x="759.422" y="418.82"/>
      <point x="753.386" y="421.96"/>
      <point x="753.386" y="434.96" type="curve" smooth="yes"/>
      <point x="753.386" y="647.82" type="line" smooth="yes"/>
      <point x="753.386" y="661.82"/>
      <point x="759.422" y="664.68"/>
      <point x="767.26" y="664.68" type="curve" smooth="yes"/>
      <point x="770.3779999999999" y="664.68" type="line"/>
      <point x="770.3779999999999" y="710.0" type="line"/>
      <point x="586.674" y="710.0" type="line"/>
      <point x="519.246" y="415.22" type="line"/>
      <point x="569.752" y="477.0" type="line"/>
      <point x="535.544" y="710.0" type="line"/>
      <point x="351.71" y="710.0" type="line"/>
      <point x="351.71" y="664.68" type="line"/>
      <point x="355.57" y="664.68" type="line" smooth="yes"/>
      <point x="363.06600000000003" y="664.68"/>
      <point x="368.044" y="661.82"/>
      <point x="368.044" y="647.82" type="curve" smooth="yes"/>
      <point x="368.044" y="434.96" type="line" smooth="yes"/>
      <point x="368.044" y="421.96"/>
      <point x="363.06600000000003" y="418.82"/>
      <point x="355.57" y="418.82" type="curve"/>
      <point x="351.71" y="418.82" type="line"/>
    </contour>
  </outline>
</glyph>
<glyph name="f_f_i" format="2">
  <advance width="905.658"/>
  <unicode hex="FB03"/>
  <outline>
    <contour>
      <point x="-6.378" y="513.16" type="line"/>
      <point x="-6.378" y="432.08" type="line"/>
      <point x="348.68600000000004" y="432.08" type="line"/>
      <point x="348.68600000000004" y="513.16" type="line"/>
    </contour>
    <contour>
      <point x="292.178" y="513.16" type="line"/>
      <point x="292.178" y="432.08" type="line"/>
      <point x="647.336" y="432.08" type="line"/>
      <point x="647.336" y="513.16" type="line"/>
    </contour>
    <contour>
      <point x="759.3399999999999" y="564.8199999999999" type="curve" smooth="yes"/>
      <point x="832.4760000000001" y="564.8199999999999"/>
      <point x="873.662" y="599.0"/>
      <point x="873.662" y="656.78" type="curve" smooth="yes"/>
      <point x="873.662" y="714.42"/>
      <point x="832.4760000000001" y="748.6"/>
      <point x="759.3399999999999" y="748.6" type="curve" smooth="yes"/>
      <point x="686.746" y="748.6"/>
      <point x="644.924" y="714.42"/>
      <point x="644.924" y="656.78" type="curve" smooth="yes"/>
      <point x="644.924" y="598.14"/>
      <point x="686.746" y="564.8199999999999"/>
    </contour>
    <contour>
      <point x="624.46" y="0.0" type="line"/>
      <point x="895.644" y="0.0" type="line"/>
      <point x="895.644" y="71.66" type="line"/>
      <point x="894.644" y="71.66" type="line" smooth="yes"/>
      <point x="884.4300000000001" y="71.66"/>
      <point x="875.686" y="77.80000000000001"/>
      <point x="875.686" y="99.06" type="curve" smooth="yes"/>
      <point x="875.686" y="513.16" type="line"/>
      <point x="624.66" y="513.16" type="line"/>
      <point x="624.66" y="432.08" type="line"/>
      <point x="630.108" y="432.08" type="line" smooth="yes"/>
      <point x="642.088" y="432.08"/>
      <point x="644.512" y="421.24"/>
      <point x="644.512" y="403.42" type="curve"/>
      <point x="644.512" y="79.94" type="line"/>
      <point x="644.512" y="73.80000000000001"/>
      <point x="634.992" y="71.66"/>
      <point x="628.072" y="71.66" type="curve" smooth="yes"/>
      <point x="624.46" y="71.66" type="line"/>
    </contour>
    <contour>
      <point x="277.374" y="79.94" type="curve"/>
      <point x="277.374" y="575.92" type="line" smooth="yes"/>
      <point x="277.374" y="632.34"/>
      <point x="287.706" y="648.46"/>
      <point x="307.852" y="648.46" type="curve" smooth="yes"/>
      <point x="317.608" y="648.46"/>
      <point x="331.47" y="642.04"/>
      <point x="329.964" y="640.06" type="curve"/>
      <point x="329.964" y="724.56" type="line"/>
      <point x="320.02" y="730.56"/>
      <point x="289.212" y="737.14"/>
      <point x="250.53199999999998" y="737.14" type="curve" smooth="yes"/>
      <point x="139.54" y="737.14"/>
      <point x="47.400000000000006" y="684.82"/>
      <point x="47.400000000000006" y="532.06" type="curve" smooth="yes"/>
      <point x="47.400000000000006" y="102.5" type="line"/>
      <point x="47.400000000000006" y="81.24000000000001"/>
      <point x="37.692" y="71.66"/>
      <point x="18.945999999999998" y="71.66" type="curve" smooth="yes"/>
      <point x="8.625999999999998" y="71.66" type="line"/>
      <point x="8.625999999999998" y="0.0" type="line"/>
      <point x="300.568" y="0.0" type="line"/>
      <point x="300.568" y="71.66" type="line"/>
      <point x="298.038" y="71.66" type="line" smooth="yes"/>
      <point x="283.846" y="71.66"/>
      <point x="277.374" y="73.80000000000001"/>
    </contour>
    <contour>
      <point x="345.956" y="79.94" type="line"/>
      <point x="345.956" y="73.80000000000001"/>
      <point x="340.68399999999997" y="71.66"/>
      <point x="330.54" y="71.66" type="curve" smooth="yes"/>
      <point x="331.47" y="71.66" type="line"/>
      <point x="331.47" y="0.0" type="line"/>
      <point x="593.558" y="0.0" type="line"/>
      <point x="593.558" y="71.66" type="line"/>
      <point x="592.746" y="71.66" type="line" smooth="yes"/>
      <point x="584.932" y="71.66"/>
      <point x="575.9300000000001" y="73.80000000000001"/>
      <point x="575.9300000000001" y="79.94" type="curve"/>
      <point x="575.9300000000001" y="586.48" type="line" smooth="yes"/>
      <point x="575.9300000000001" y="642.9"/>
      <point x="585.238" y="659.02"/>
      <point x="605.5260000000001" y="659.02" type="curve" smooth="yes"/>
      <point x="614.5160000000001" y="659.02"/>
      <point x="628.378" y="652.88"/>
      <point x="627.178" y="650.9" type="curve"/>
      <point x="627.178" y="735.12" type="line"/>
      <point x="616.364" y="741.12"/>
      <point x="587.192" y="747.7"/>
      <point x="548.206" y="747.7" type="curve" smooth="yes"/>
      <point x="436.50800000000004" y="747.7"/>
      <point x="345.956" y="695.38"/>
      <point x="345.956" y="542.62" type="curve"/>
    </contour>
  </outline>
</glyph>
<glyph name="acute.pl" format="2">
  <advance width="417.75"/>
  <anchor x="181.28" y="489.0" name="_top"/>
  <outline>
    <contour>
      <point x="129.008" y="680.58" type="curve" smooth="yes"/>
      <point x="126.678" y="585.14" type="line"/>
      <point x="126.678" y="559.12" type="line"/>
      <point x="200.626" y="559.12" type="line"/>
      <point x="232.234" y="616.3" type="line" smooth="yes"/>
      <point x="274.244" y="670.96"/>
      <point x="289.848" y="701.28"/>
      <point x="289.848" y="733.04" type="curve" smooth="yes"/>
      <point x="289.848" y="768.22"/>
      <point x="267.854" y="797.7"/>
      <point x="216.83" y="797.7" type="curve" smooth="yes"/>
      <point x="155.96800000000002" y="797.7"/>
      <point x="130.538" y="754.64"/>
    </contour>
  </outline>
</glyph>
<glyph name="f.short" format="2">
  <advance width="367.00800000000004"/>
  <outline>
    <contour>
      <point x="-6.378" y="513.16" type="line"/>
      <point x="-6.378" y="432.08" type="line"/>
      <point x="362.148" y="432.08" type="line"/>
      <point x="362.148" y="513.16" type="line"/>
    </contour>
    <contour>
      <point x="277.374" y="79.94" type="curve" smooth="yes"/>
      <point x="277.374" y="572.72" type="line" smooth="yes"/>
      <point x="277.374" y="636.02"/>
      <point x="288.51800000000003" y="660.74"/>
      <point x="319.11400000000003" y="660.74" type="curve" smooth="yes"/>
      <point x="342.08399999999995" y="660.74"/>
      <point x="362.654" y="649.44"/>
      <point x="364.49" y="646.6" type="curve"/>
      <point x="364.49" y="735.12" type="line"/>
      <point x="353.04" y="740.26"/>
      <point x="319.632" y="747.7"/>
      <point x="275.774" y="747.7" type="curve" smooth="yes"/>
      <point x="147.265964412576" y="747.7"/>
      <point x="47.400000000000006" y="695.38"/>
      <point x="47.400000000000006" y="542.62" type="curve" smooth="yes"/>
      <point x="47.400000000000006" y="102.5" type="line"/>
      <point x="47.400000000000006" y="81.24000000000001"/>
      <point x="37.692" y="71.66"/>
      <point x="18.945999999999998" y="71.66" type="curve" smooth="yes"/>
      <point x="8.625999999999998" y="71.66" type="line"/>
      <point x="8.625999999999998" y="0.0" type="line"/>
      <point x="327.40999999999997" y="0.0" type="line"/>
      <point x="327.40999999999997" y="71.66" type="line"/>
      <point x="319.23199999999997" y="71.66" type="line" smooth="yes"/>
      <point x="302.68600000000004" y="71.66"/>
      <point x="277.374" y="73.80000000000001"/>
    </contour>
  </outline>
</glyph>
<glyph name="f_f_h" format="2">
  <advance width="1192.0700000000002"/>
  <outline>
    <contour>
      <point x="-6.378" y="513.16" type="line"/>
      <point x="-6.378" y="432.08" type="line"/>
      <point x="349.498" y="432.08" type="line"/>
      <point x="349.498" y="513.16" type="line"/>
    </contour>
    <contour>
      <point x="937.984" y="79.94" type="line" smooth="yes"/>
      <point x="937.984" y="73.80000000000001"/>
      <point x="928.4639999999999" y="71.66"/>
      <point x="920.98" y="71.66" type="curve" smooth="yes"/>
      <point x="920.1800000000001" y="71.66" type="line"/>
      <point x="920.1800000000001" y="0.0" type="line"/>
      <point x="1188.6460000000002" y="0.0" type="line"/>
      <point x="1188.6460000000002" y="71.66" type="line"/>
      <point x="1187.116" y="71.66" type="line" smooth="yes"/>
      <point x="1176.702" y="71.66"/>
      <point x="1168.594" y="77.80000000000001"/>
      <point x="1168.594" y="99.06" type="curve" smooth="yes"/>
      <point x="1168.594" y="344.96" type="line" smooth="yes"/>
      <point x="1168.594" y="461.12"/>
      <point x="1109.426" y="523.16"/>
      <point x="1017.898" y="523.16" type="curve" smooth="yes"/>
      <point x="945.1859999999999" y="523.16"/>
      <point x="886.748" y="475.62"/>
      <point x="865.66" y="396.46" type="curve"/>
      <point x="876.4159999999999" y="325.02" type="line"/>
      <point x="885.23" y="375.32"/>
      <point x="898.2919999999999" y="406.84000000000003"/>
      <point x="915.732" y="406.84000000000003" type="curve" smooth="yes"/>
      <point x="932.418" y="406.84000000000003"/>
      <point x="937.984" y="387.46"/>
      <point x="937.984" y="347.72" type="curve" smooth="yes"/>
    </contour>
    <contour>
      <point x="292.178" y="513.16" type="line"/>
      <point x="292.178" y="432.08" type="line"/>
      <point x="622.436" y="432.08" type="line"/>
      <point x="622.436" y="513.16" type="line"/>
    </contour>
    <contour>
      <point x="624.66" y="0.0" type="line"/>
      <point x="892.926" y="0.0" type="line"/>
      <point x="892.926" y="71.66" type="line"/>
      <point x="890.3960000000001" y="71.66" type="line" smooth="yes"/>
      <point x="885.3120000000001" y="71.66"/>
      <point x="875.686" y="73.80000000000001"/>
      <point x="875.686" y="79.94" type="curve" smooth="yes"/>
      <point x="875.686" y="730.7" type="line"/>
      <point x="622.942" y="730.7" type="line"/>
      <point x="644.512" y="694.38" type="line"/>
      <point x="644.512" y="79.94" type="line"/>
      <point x="644.512" y="73.80000000000001"/>
      <point x="635.098" y="71.66"/>
      <point x="628.2719999999999" y="71.66" type="curve" smooth="yes"/>
      <point x="624.66" y="71.66" type="line"/>
    </contour>
    <contour>
      <point x="47.400000000000006" y="102.5" type="line"/>
      <point x="47.400000000000006" y="81.24000000000001"/>
      <point x="37.692" y="71.66"/>
      <point x="18.945999999999998" y="71.66" type="curve" smooth="yes"/>
      <point x="8.625999999999998" y="71.66" type="line"/>
      <point x="8.625999999999998" y="0.0" type="line"/>
      <point x="300.568" y="0.0" type="line"/>
      <point x="300.568" y="71.66" type="line"/>
      <point x="298.038" y="71.66" type="line" smooth="yes"/>
      <point x="283.846" y="71.66"/>
      <point x="277.374" y="73.80000000000001"/>
      <point x="277.374" y="79.94" type="curve"/>
      <point x="277.374" y="575.92" type="line" smooth="yes"/>
      <point x="277.374" y="632.34"/>
      <point x="287.706" y="648.46"/>
      <point x="307.852" y="648.46" type="curve" smooth="yes"/>
      <point x="317.608" y="648.46"/>
      <point x="331.47" y="642.04"/>
      <point x="329.964" y="640.06" type="curve"/>
      <point x="329.964" y="724.56" type="line"/>
      <point x="320.02" y="730.56"/>
      <point x="289.212" y="737.14"/>
      <point x="250.53199999999998" y="737.14" type="curve" smooth="yes"/>
      <point x="139.54" y="737.14"/>
      <point x="47.400000000000006" y="684.82"/>
      <point x="47.400000000000006" y="532.06" type="curve" smooth="yes"/>
    </contour>
    <contour>
      <point x="345.956" y="79.94" type="line"/>
      <point x="345.956" y="73.80000000000001"/>
      <point x="340.68399999999997" y="71.66"/>
      <point x="330.54" y="71.66" type="curve" smooth="yes"/>
      <point x="331.47" y="71.66" type="line"/>
      <point x="331.47" y="0.0" type="line"/>
      <point x="593.558" y="0.0" type="line"/>
      <point x="593.558" y="71.66" type="line"/>
      <point x="592.746" y="71.66" type="line" smooth="yes"/>
      <point x="584.932" y="71.66"/>
      <point x="575.9300000000001" y="73.80000000000001"/>
      <point x="575.9300000000001" y="79.94" type="curve"/>
      <point x="575.9300000000001" y="574.44" type="line" smooth="yes"/>
      <point x="575.9300000000001" y="636.02"/>
      <point x="589.1800000000001" y="659.02"/>
      <point x="620.012" y="659.02" type="curve" smooth="yes"/>
      <point x="653.514" y="659.02"/>
      <point x="674.472" y="633.42"/>
      <point x="686.134" y="572.26" type="curve"/>
      <point x="790.76" y="694.7" type="line"/>
      <point x="747.0899999999999" y="722.4"/>
      <point x="688.876" y="747.7"/>
      <point x="594.146" y="747.7" type="curve" smooth="yes"/>
      <point x="460.102" y="747.7"/>
      <point x="345.956" y="695.38"/>
      <point x="345.956" y="542.62" type="curve"/>
    </contour>
  </outline>
</glyph>
<glyph name="f_k" format="2">
  <advance width="940.5139999999999"/>
  <outline>
    <contour>
      <point x="932.124" y="0.0" type="line"/>
      <point x="932.124" y="71.66" type="line"/>
      <point x="930.6880000000001" y="71.66" type="line"/>
      <point x="910.742" y="71.66"/>
      <point x="892.8199999999999" y="80.24000000000001"/>
      <point x="883.7" y="103.64" type="curve" smooth="yes"/>
      <point x="751.938" y="366.48" type="line"/>
      <point x="695.2180000000001" y="269.3" type="line"/>
      <point x="820.602" y="401.96" type="line" smooth="yes"/>
      <point x="837.712" y="423.92"/>
      <point x="860.494" y="441.5"/>
      <point x="892.514" y="441.5" type="curve"/>
      <point x="894.044" y="441.5" type="line"/>
      <point x="894.044" y="513.16" type="line"/>
      <point x="668.082" y="513.16" type="line"/>
      <point x="668.082" y="441.5" type="line"/>
      <point x="671.142" y="441.5" type="line" smooth="yes"/>
      <point x="689.17" y="441.5"/>
      <point x="725.002" y="438.5"/>
      <point x="725.002" y="423.5" type="curve"/>
      <point x="592.264" y="279.88" type="line"/>
      <point x="592.264" y="249.94" type="line"/>
      <point x="643.2760000000001" y="79.94" type="line"/>
      <point x="643.2760000000001" y="73.80000000000001"/>
      <point x="633.65" y="71.66"/>
      <point x="628.002" y="71.66" type="curve" smooth="yes"/>
      <point x="625.472" y="71.66" type="line"/>
      <point x="625.472" y="0.0" type="line"/>
    </contour>
    <contour>
      <point x="-6.378" y="513.16" type="line"/>
      <point x="-6.378" y="432.08" type="line"/>
      <point x="323.88" y="432.08" type="line"/>
      <point x="323.88" y="513.16" type="line"/>
    </contour>
    <contour>
      <point x="594.37" y="0.0" type="line"/>
      <point x="594.37" y="71.66" type="line"/>
      <point x="591.84" y="71.66" type="line" smooth="yes"/>
      <point x="586.6500000000001" y="71.66"/>
      <point x="576.566" y="73.80000000000001"/>
      <point x="576.566" y="79.94" type="curve"/>
      <point x="576.566" y="730.7" type="line"/>
      <point x="321.044" y="730.7" type="line"/>
      <point x="345.956" y="675.78" type="line"/>
      <point x="345.956" y="79.94" type="line"/>
      <point x="345.956" y="73.80000000000001"/>
      <point x="336.43600000000004" y="71.66"/>
      <point x="331.352" y="71.66" type="curve" smooth="yes"/>
      <point x="328.94" y="71.66" type="line"/>
      <point x="328.94" y="0.0" type="line"/>
    </contour>
    <contour>
      <point x="277.374" y="79.94" type="curve"/>
      <point x="277.374" y="574.44" type="line" smooth="yes"/>
      <point x="277.374" y="636.02"/>
      <point x="290.06" y="659.02"/>
      <point x="321.456" y="659.02" type="curve" smooth="yes"/>
      <point x="354.958" y="659.02"/>
      <point x="375.916" y="633.42"/>
      <point x="387.578" y="572.26" type="curve"/>
      <point x="492.20399999999995" y="694.7" type="line"/>
      <point x="448.534" y="722.4"/>
      <point x="390.32" y="747.7"/>
      <point x="295.026" y="747.7" type="curve" smooth="yes"/>
      <point x="161.546" y="747.7"/>
      <point x="47.400000000000006" y="695.38"/>
      <point x="47.400000000000006" y="542.62" type="curve" smooth="yes"/>
      <point x="47.400000000000006" y="102.5" type="line" smooth="yes"/>
      <point x="47.400000000000006" y="81.24000000000001"/>
      <point x="37.692" y="71.66"/>
      <point x="18.945999999999998" y="71.66" type="curve" smooth="yes"/>
      <point x="8.625999999999998" y="71.66" type="line"/>
      <point x="8.625999999999998" y="0.0" type="line"/>
      <point x="298.038" y="0.0" type="line"/>
      <point x="298.038" y="71.66" type="line"/>
      <point x="297.226" y="71.66" type="line" smooth="yes"/>
      <point x="283.34000000000003" y="71.66"/>
      <point x="277.374" y="73.80000000000001"/>
    </contour>
  </outline>
</glyph>
<glyph name="five.lin" format="2">
  <advance width="467.88"/>
  <outline>
    <contour>
      <point x="224.832" y="-10.14" type="curve" smooth="yes"/>
      <point x="100.766" y="-10.14"/>
      <point x="34.444" y="60.44"/>
      <point x="3.8600000000000065" y="151.92000000000002" type="curve"/>
      <point x="90.74000000000001" y="207.4" type="line"/>
      <point x="107.462" y="154.26"/>
      <point x="139.87" y="85.98"/>
      <point x="187.764" y="85.98" type="curve" smooth="yes"/>
      <point x="232.222" y="85.98"/>
      <point x="248.63800000000003" y="144.06"/>
      <point x="248.63800000000003" y="241.14" type="curve" smooth="yes"/>
      <point x="248.63800000000003" y="326.78"/>
      <point x="233.352" y="378.62"/>
      <point x="192.636" y="378.62" type="curve" smooth="yes"/>
      <point x="158.38" y="378.62"/>
      <point x="143.8" y="352.18"/>
      <point x="133.492" y="307.46" type="curve"/>
      <point x="47.788000000000004" y="307.46" type="line"/>
      <point x="47.788000000000004" y="710.0" type="line"/>
      <point x="412.796" y="710.0" type="line"/>
      <point x="401.86400000000003" y="561.62" type="line"/>
      <point x="119.312" y="561.62" type="line"/>
      <point x="141.082" y="690.0" type="line"/>
      <point x="141.082" y="377.0" type="line"/>
      <point x="136.716" y="363.56"/>
      <point x="127.384" y="359.0"/>
      <point x="117.076" y="369.82" type="curve"/>
      <point x="146.53" y="424.68"/>
      <point x="182.998" y="467.0"/>
      <point x="274.55" y="467.0" type="curve" smooth="yes"/>
      <point x="392.026" y="467.0"/>
      <point x="456.548" y="369.3"/>
      <point x="456.548" y="240.28" type="curve" smooth="yes"/>
      <point x="456.548" y="88.12"/>
      <point x="369.244" y="-10.14"/>
    </contour>
  </outline>
</glyph>
<glyph name="florin.proportional" format="2">
  <advance width="435.26"/>
  <outline>
    <contour>
      <point x="29.996000000000002" y="508.0" type="line"/>
      <point x="23.10000000000001" y="418.74" type="line"/>
      <point x="400.534" y="418.74" type="line"/>
      <point x="407.43" y="508.0" type="line"/>
    </contour>
    <contour>
      <point x="259.652" y="79.22" type="curve" smooth="yes"/>
      <point x="316.76" y="559.64" type="line" smooth="yes"/>
      <point x="323.28" y="623.7"/>
      <point x="348.592" y="642.52"/>
      <point x="377.222" y="642.52" type="curve" smooth="yes"/>
      <point x="401.546" y="642.52"/>
      <point x="416.538" y="635.52"/>
      <point x="428.188" y="628.6800000000001" type="curve"/>
      <point x="434.648" y="723.92" type="line"/>
      <point x="413.514" y="735.92"/>
      <point x="381.294" y="744.64"/>
      <point x="325.81" y="744.64" type="curve" smooth="yes"/>
      <point x="201.45000000000002" y="744.64"/>
      <point x="129.726" y="681.62"/>
      <point x="112.51000000000002" y="547.58" type="curve" smooth="yes"/>
      <point x="57.001999999999995" y="65.22" type="line" smooth="yes"/>
      <point x="35.232" y="-115.03999999999999"/>
      <point x="7.496000000000009" y="-135.6"/>
      <point x="-23.900000000000002" y="-135.6" type="curve" smooth="yes"/>
      <point x="-49.012" y="-135.6"/>
      <point x="-69.782" y="-123.44"/>
      <point x="-79.78399999999999" y="-118.16" type="curve"/>
      <point x="-83.844" y="-215.98" type="line"/>
      <point x="-69.79400000000001" y="-225.56"/>
      <point x="-36.644000000000005" y="-236.0"/>
      <point x="3.7300000000000013" y="-236.0" type="curve" smooth="yes"/>
      <point x="134.09199999999998" y="-236.0"/>
      <point x="229.48000000000002" y="-157.7"/>
    </contour>
  </outline>
</glyph>
<glyph name="four.den" format="2">
  <advance width="335.918"/>
  <outline>
    <contour>
      <point x="5.766000000000002" y="68.66" type="line"/>
      <point x="322.456" y="68.66" type="line"/>
      <point x="322.456" y="165.38" type="line"/>
      <point x="57.332" y="165.38" type="line"/>
      <point x="36.95" y="114.74000000000001" type="line"/>
      <point x="162.534" y="319.46" type="line"/>
      <point x="169.512" y="373.68" type="line"/>
      <point x="133.186" y="373.68" type="line"/>
      <point x="5.766000000000002" y="167.52" type="line"/>
    </contour>
    <contour>
      <point x="290.672" y="0.0" type="line"/>
      <point x="290.672" y="373.68" type="line"/>
      <point x="155.332" y="373.68" type="line"/>
      <point x="147.978" y="336.08" type="line"/>
      <point x="147.978" y="0.0" type="line"/>
    </contour>
  </outline>
</glyph>
<glyph name="heartsuitwhite" format="2">
  <advance width="752.95"/>
  <outline>
    <contour>
      <point x="380.8" y="461.0" type="line"/>
      <point x="407.1" y="541.0"/>
      <point x="459.76" y="641.0"/>
      <point x="535.72" y="641.0" type="curve" smooth="yes"/>
      <point x="598.03" y="641.0"/>
      <point x="633.45" y="594.0"/>
      <point x="633.45" y="528.0" type="curve" smooth="yes"/>
      <point x="633.45" y="446.0"/>
      <point x="599.03" y="397.0"/>
      <point x="542.84" y="316.0" type="curve" smooth="yes"/>
      <point x="380.27" y="83.0" type="line"/>
      <point x="372.68" y="83.0" type="line"/>
      <point x="209.64" y="316.0" type="line" smooth="yes"/>
      <point x="153.92000000000002" y="397.0"/>
      <point x="119.5" y="446.0"/>
      <point x="119.5" y="528.0" type="curve" smooth="yes"/>
      <point x="119.5" y="594.0"/>
      <point x="154.45" y="641.0"/>
      <point x="217.23000000000002" y="641.0" type="curve" smooth="yes"/>
      <point x="293.19" y="641.0"/>
      <point x="345.85" y="541.0"/>
      <point x="372.68" y="461.0" type="curve"/>
    </contour>
    <contour>
      <point x="366.62" y="-10.0" type="line"/>
      <point x="385.86" y="-10.0" type="line"/>
      <point x="583.85" y="273.0" type="line" smooth="yes"/>
      <point x="655.22" y="375.0"/>
      <point x="694.23" y="437.0"/>
      <point x="694.23" y="535.0" type="curve" smooth="yes"/>
      <point x="694.23" y="632.0"/>
      <point x="639.04" y="710.0"/>
      <point x="542.31" y="710.0" type="curve" smooth="yes"/>
      <point x="464.35" y="710.0"/>
      <point x="408.63" y="657.0"/>
      <point x="376.74" y="569.0" type="curve"/>
      <point x="344.32" y="657.0"/>
      <point x="288.13" y="710.0"/>
      <point x="210.64" y="710.0" type="curve" smooth="yes"/>
      <point x="113.44" y="710.0"/>
      <point x="58.72" y="632.0"/>
      <point x="58.72" y="535.0" type="curve" smooth="yes"/>
      <point x="58.72" y="437.0"/>
      <point x="97.73" y="375.0"/>
      <point x="168.63" y="273.0" type="curve" smooth="yes"/>
    </contour>
  </outline>
</glyph>
<glyph name="horncomb" format="2">
  <anchor x="-282.67" y="444.0" name="_top"/>
  <outline>
    <contour>
      <point x="-370.55" y="465.56" type="curve"/>
      <point x="-182.292" y="466.7"/>
      <point x="-129.938" y="517.42"/>
      <point x="-129.938" y="680.0" type="curve"/>
      <point x="-276.986" y="680.0" type="line"/>
      <point x="-278.822" y="544.86"/>
      <point x="-314.442" y="513.16"/>
      <point x="-412.99600000000004" y="513.16" type="curve"/>
      <point x="-412.996" y="513.16"/>
      <point x="-370.55" y="465.56"/>
    </contour>
  </outline>
</glyph>
<glyph name="lira.alt" format="2">
  <advance width="467.88"/>
  <outline>
    <contour>
      <point x="446.804" y="0.0" type="line"/>
      <point x="446.804" y="226.66" type="line"/>
      <point x="362.242" y="226.66" type="line"/>
      <point x="356.488" y="183.8" type="line" smooth="yes"/>
      <point x="350.486" y="148.66"/>
      <point x="330.234" y="141.66"/>
      <point x="267.984" y="141.66" type="curve" smooth="yes"/>
      <point x="204.98" y="141.66" type="line"/>
      <point x="114.864" y="91.1" type="line"/>
      <point x="245.79" y="129.95999999999998"/>
      <point x="269.784" y="199.62"/>
      <point x="269.784" y="274.48" type="curve" smooth="yes"/>
      <point x="269.784" y="377.62"/>
      <point x="237.682" y="459.3"/>
      <point x="237.682" y="542.06" type="curve" smooth="yes"/>
      <point x="237.682" y="595.82"/>
      <point x="250.09683720929002" y="625.32"/>
      <point x="273.432" y="625.32" type="curve" smooth="yes"/>
      <point x="283.34" y="625.32"/>
      <point x="293.272" y="613.66"/>
      <point x="298.05" y="596.56" type="curve"/>
      <point x="324.374" y="603.66"/>
      <point x="329.23400000000004" y="631.96"/>
      <point x="282.54" y="632.24" type="curve"/>
      <point x="282.54" y="548.6" type="line"/>
      <point x="437.284" y="548.6" type="line"/>
      <point x="437.284" y="664.88" type="line"/>
      <point x="412.878" y="687.44"/>
      <point x="351.416" y="719.72"/>
      <point x="256.416" y="719.72" type="curve" smooth="yes"/>
      <point x="105.47020627805401" y="719.72"/>
      <point x="31.60800000000001" y="632.84"/>
      <point x="31.60800000000001" y="527.6" type="curve" smooth="yes"/>
      <point x="31.60800000000001" y="399.68"/>
      <point x="108.274" y="343.84"/>
      <point x="108.274" y="239.7" type="curve" smooth="yes"/>
      <point x="108.274" y="181.9"/>
      <point x="78.102" y="141.95999999999998"/>
      <point x="10.956" y="123.74000000000001" type="curve"/>
      <point x="10.956" y="0.0" type="line"/>
    </contour>
    <contour>
      <point x="10.32" y="494.0" type="line"/>
      <point x="10.32" y="415.34" type="line"/>
      <point x="377.328" y="415.34" type="line"/>
      <point x="377.328" y="494.0" type="line"/>
    </contour>
    <contour>
      <point x="10.32" y="352.76" type="line"/>
      <point x="10.32" y="274.1" type="line"/>
      <point x="377.328" y="274.1" type="line"/>
      <point x="377.328" y="352.76" type="line"/>
    </contour>
  </outline>
</glyph>
<glyph name="manat.proportional" format="2">
  <advance width="634.768"/>
  <outline>
    <contour>
      <point x="281.14" y="720.0" type="line"/>
      <point x="281.14" y="162.32" type="line"/>
      <point x="353.158" y="162.32" type="line"/>
      <point x="353.158" y="720.0" type="line"/>
    </contour>
    <contour>
      <point x="317.384" y="505.32" type="curve" smooth="yes"/>
      <point x="396.968" y="505.32"/>
      <point x="396.568" y="395.06"/>
      <point x="396.568" y="0.0" type="curve"/>
      <point x="610.28" y="0.0" type="line"/>
      <point x="610.28" y="320.98"/>
      <point x="494.298" y="590.0"/>
      <point x="317.384" y="590.0" type="curve" smooth="yes"/>
      <point x="140.564" y="590.0"/>
      <point x="24.488" y="320.98"/>
      <point x="24.488" y="0.0" type="curve"/>
      <point x="238.29399999999998" y="0.0" type="line"/>
      <point x="238.29399999999998" y="395.06"/>
      <point x="237.8" y="505.32"/>
    </contour>
  </outline>
</glyph>
<glyph name="one.den" format="2">
  <advance width="314.03"/>
  <outline>
    <contour>
      <point x="237.506" y="79.8" type="curve" smooth="yes"/>
      <point x="237.506" y="372.82" type="line"/>
      <point x="105.92" y="372.82" type="line"/>
      <point x="88.01" y="343.1"/>
      <point x="70.064" y="325.66"/>
      <point x="7.2840000000000025" y="325.52" type="curve"/>
      <point x="7.2840000000000025" y="243.54" type="line"/>
      <point x="57.732" y="243.4"/>
      <point x="82.938" y="257.68"/>
      <point x="99.13" y="314.04" type="curve"/>
      <point x="90.02199999999999" y="321.9"/>
      <point x="94.094" y="313.74"/>
      <point x="86.86800000000001" y="309.76" type="curve"/>
      <point x="86.86800000000001" y="79.8" type="line" smooth="yes"/>
      <point x="86.86800000000001" y="55.78"/>
      <point x="58.626000000000005" y="51.78"/>
      <point x="29.266000000000005" y="51.78" type="curve" smooth="yes"/>
      <point x="18.44" y="51.78" type="line"/>
      <point x="18.44" y="0.0" type="line"/>
      <point x="297.332" y="0.0" type="line"/>
      <point x="297.332" y="51.78" type="line"/>
      <point x="293.202" y="51.78" type="line" smooth="yes"/>
      <point x="261.876" y="51.78"/>
      <point x="237.506" y="55.78"/>
    </contour>
  </outline>
</glyph>
<glyph name="peseta.proportional" format="2">
  <advance width="750.326"/>
  <outline>
    <contour>
      <point x="17.734" y="0.0" type="line"/>
      <point x="290.142" y="0.0" type="line"/>
      <point x="290.142" y="77.1" type="line"/>
      <point x="275.75" y="77.1" type="line" smooth="yes"/>
      <point x="262.9" y="77.1"/>
      <point x="247.896" y="80.1"/>
      <point x="247.896" y="87.1" type="curve" smooth="yes"/>
      <point x="247.896" y="257.8" type="line"/>
      <point x="265.43" y="257.8" type="line" smooth="yes"/>
      <point x="416.306000000048" y="257.8"/>
      <point x="492.71000000000004" y="366.0"/>
      <point x="492.71000000000004" y="487.4" type="curve" smooth="yes"/>
      <point x="492.71000000000004" y="622.56"/>
      <point x="411.872275862376" y="710.0"/>
      <point x="239.69400000000002" y="710.0" type="curve" smooth="yes"/>
      <point x="17.734" y="710.0" type="line"/>
      <point x="17.734" y="632.9" type="line"/>
      <point x="26.218000000000004" y="632.9" type="line" smooth="yes"/>
      <point x="43.952" y="632.9"/>
      <point x="56.80200000000001" y="625.9"/>
      <point x="56.80200000000001" y="596.9" type="curve" smooth="yes"/>
      <point x="56.80200000000001" y="113.1" type="line" smooth="yes"/>
      <point x="56.80200000000001" y="84.1"/>
      <point x="43.952" y="77.1"/>
      <point x="26.218000000000004" y="77.1" type="curve" smooth="yes"/>
      <point x="17.734" y="77.1" type="line"/>
    </contour>
    <contour>
      <point x="259.852" y="616.02" type="line" smooth="yes"/>
      <point x="297.971205479696" y="616.02"/>
      <point x="311.43" y="572.5"/>
      <point x="311.43" y="486.4" type="curve" smooth="yes"/>
      <point x="311.43" y="400.3"/>
      <point x="296.78907692324003" y="351.5"/>
      <point x="255.228" y="351.5" type="curve" smooth="yes"/>
      <point x="247.896" y="351.5" type="line"/>
      <point x="247.896" y="616.02" type="line"/>
    </contour>
    <contour>
      <point x="457.148" y="416.6" type="line"/>
      <point x="738.664" y="416.6" type="line"/>
      <point x="738.664" y="508.0" type="line"/>
      <point x="595.076" y="508.0" type="line"/>
      <point x="528.93" y="560.74" type="line"/>
      <point x="528.93" y="510.28"/>
      <point x="514.762" y="500.42"/>
      <point x="484.496" y="500.42" type="curve" smooth="yes"/>
      <point x="474.164" y="500.42" type="line"/>
    </contour>
    <contour>
      <point x="692.3000000000001" y="140.0" type="curve"/>
      <point x="692.3000000000001" y="648.0" type="line"/>
      <point x="528.93" y="648.0" type="line"/>
      <point x="528.93" y="500.0" type="line"/>
      <point x="505.466" y="456.74" type="line"/>
      <point x="505.466" y="139.0" type="line" smooth="yes"/>
      <point x="505.466" y="28.759999999999998"/>
      <point x="569.646" y="-11.0"/>
      <point x="662.61" y="-11.0" type="curve" smooth="yes"/>
      <point x="701.596" y="-11.0"/>
      <point x="723.414" y="-7.0"/>
      <point x="738.664" y="-1.1399999999999997" type="curve"/>
      <point x="738.664" y="91.97999999999999" type="line"/>
      <point x="735.052" y="90.69999999999999"/>
      <point x="726.45" y="88.56"/>
      <point x="718.212" y="88.56" type="curve" smooth="yes"/>
      <point x="701.62" y="88.56"/>
      <point x="692.3000000000001" y="102.68"/>
    </contour>
  </outline>
</glyph>
<glyph name="plus.sub" format="2">
  <advance width="343.944"/>
  <outline>
    <contour>
      <point x="123.748" y="235.0" type="line"/>
      <point x="123.748" y="-75.0" type="line"/>
      <point x="221.066" y="-75.0" type="line"/>
      <point x="221.066" y="235.0" type="line"/>
    </contour>
    <contour>
      <point x="297.53200000000004" y="125.5" type="line"/>
      <point x="46.976" y="125.5" type="line"/>
      <point x="46.976" y="34.5" type="line"/>
      <point x="297.53200000000004" y="34.5" type="line"/>
    </contour>
  </outline>
</glyph>
<glyph name="six.old" format="2">
  <advance width="467.88"/>
  <outline>
    <contour>
      <point x="410.572" y="654.2" type="line"/>
      <point x="296.063972300782" y="617.4721736011834"/>
      <point x="219.054" y="493.84"/>
      <point x="219.054" y="287.1" type="curve" smooth="yes"/>
      <point x="219.054" y="122.56"/>
      <point x="221.95307975465" y="75.80000000000001"/>
      <point x="233.64600000000002" y="75.80000000000001" type="curve" smooth="yes"/>
      <point x="244.92289208635" y="75.80000000000001"/>
      <point x="245.48399999999998" y="124.44"/>
      <point x="245.48399999999998" y="228.86" type="curve" smooth="yes"/>
      <point x="245.48399999999998" y="312.24"/>
      <point x="247.32228800000001" y="366.92"/>
      <point x="225.656" y="366.92" type="curve" smooth="yes"/>
      <point x="212.654746114016" y="366.92"/>
      <point x="199.92000000000002" y="331.02"/>
      <point x="185.716" y="283.0" type="curve"/>
      <point x="182.304" y="354.92" type="line"/>
      <point x="194.027196378378" y="400.9538469716038"/>
      <point x="221.369055555532" y="452.72"/>
      <point x="292.354" y="452.72" type="curve" smooth="yes"/>
      <point x="391.95220853076603" y="452.72"/>
      <point x="458.06600000000003" y="376.46"/>
      <point x="458.06600000000003" y="236.6" type="curve" smooth="yes"/>
      <point x="458.06600000000003" y="81.4"/>
      <point x="372.192337552786" y="-10.0"/>
      <point x="239.718" y="-10.0" type="curve" smooth="yes"/>
      <point x="98.727209302296" y="-10.0"/>
      <point x="9.002000000000002" y="83.4"/>
      <point x="9.002000000000002" y="295.0" type="curve" smooth="yes"/>
      <point x="9.002000000000002" y="512.72"/>
      <point x="167.38786818643" y="696.4345411552706"/>
      <point x="398.31" y="740.0" type="curve"/>
    </contour>
  </outline>
</glyph>
<glyph name="whiterightpointingtriangle" format="2">
  <advance width="478.53"/>
  <outline>
    <contour>
      <point x="108.38" y="545.0" type="line"/>
      <point x="108.38" y="10.0" type="line"/>
      <point x="420.28" y="277.0" type="line"/>
    </contour>
    <contour>
      <point x="154.45" y="460.0" type="line"/>
      <point x="141.27" y="453.0" type="line"/>
      <point x="354.44" y="272.0" type="line"/>
      <point x="354.44" y="283.0" type="line"/>
      <point x="141.27" y="102.0" type="line"/>
      <point x="154.45" y="95.0" type="line"/>
    </contour>
  </outline>
</glyph>
<glyph name="won.proportional" format="2">
  <advance width="832.04"/>
  <outline>
    <contour>
      <point x="19.864" y="710.0" type="line"/>
      <point x="19.864" y="632.9" type="line"/>
      <point x="26.324" y="632.9" type="line" smooth="yes"/>
      <point x="42.034" y="632.9"/>
      <point x="55.096000000000004" y="627.32"/>
      <point x="57.92" y="603.64" type="curve" smooth="yes"/>
      <point x="141.576" y="0.0" type="line"/>
      <point x="376.31600000000003" y="0.0" type="line"/>
      <point x="438.32" y="635.7" type="line"/>
      <point x="418.044" y="653.74" type="line"/>
      <point x="473.752" y="0.0" type="line"/>
      <point x="694.512" y="0.0" type="line"/>
      <point x="774.026" y="589.9" type="line" smooth="yes"/>
      <point x="778.886" y="623.04"/>
      <point x="788.406" y="632.9"/>
      <point x="806.822" y="632.9" type="curve" smooth="yes"/>
      <point x="811.518" y="632.9" type="line"/>
      <point x="811.518" y="710.0" type="line"/>
      <point x="668.494" y="710.0" type="line"/>
      <point x="668.494" y="632.9" type="line"/>
      <point x="678.744" y="632.9" type="line" smooth="yes"/>
      <point x="688.7460000000001" y="632.9"/>
      <point x="699.996" y="625.9"/>
      <point x="699.996" y="614.9" type="curve"/>
      <point x="639.828" y="94.82000000000001" type="line"/>
      <point x="660.386" y="115.30000000000001" type="line"/>
      <point x="609.444" y="710.0" type="line"/>
      <point x="387.872" y="710.0" type="line"/>
      <point x="323.46799999999996" y="81.66" type="line"/>
      <point x="343.214" y="93.25999999999999" type="line"/>
      <point x="295.12" y="622.9" type="line"/>
      <point x="295.12" y="629.9"/>
      <point x="308.37" y="632.9"/>
      <point x="319.008" y="632.9" type="curve" smooth="yes"/>
      <point x="328.31600000000003" y="632.9" type="line"/>
      <point x="328.31600000000003" y="710.0" type="line"/>
    </contour>
    <contour>
      <point x="19.864" y="479.36" type="line"/>
      <point x="19.864" y="401.56" type="line"/>
      <point x="241.342" y="401.56" type="line"/>
      <point x="265.148" y="401.56" type="line"/>
      <point x="374.198" y="401.56" type="line"/>
      <point x="392.73199999999997" y="479.36" type="line"/>
    </contour>
    <contour>
      <point x="527.6120000000001" y="401.56" type="line"/>
      <point x="713.446" y="401.56" type="line"/>
      <point x="721.9780000000001" y="401.56" type="line" smooth="yes"/>
      <point x="811.518" y="401.56" type="line"/>
      <point x="811.518" y="479.36" type="line"/>
      <point x="515.056" y="479.36" type="line"/>
    </contour>
    <contour>
      <point x="364.49" y="228.4" type="line"/>
      <point x="568.034" y="228.4" type="line"/>
      <point x="559.938" y="306.2" type="line"/>
      <point x="378.046" y="306.2" type="line"/>
    </contour>
    <contour>
      <point x="711.858" y="228.4" type="line"/>
      <point x="811.518" y="228.4" type="line"/>
      <point x="811.518" y="306.2" type="line"/>
      <point x="717.906" y="306.2" type="line"/>
    </contour>
    <contour>
      <point x="127.09" y="306.2" type="line"/>
      <point x="19.864" y="306.2" type="line"/>
      <point x="19.864" y="228.4" type="line"/>
      <point x="134.28" y="228.4" type="line"/>
    </contour>
  </outline>
</glyph>
<glyph name="zero.old" format="2">
  <advance width="467.88"/>
  <outline>
    <contour>
      <point x="233.94" y="-11.14" type="curve" smooth="yes"/>
      <point x="366.955757575764" y="-11.14"/>
      <point x="462.302" y="97.12"/>
      <point x="462.302" y="273.0" type="curve" smooth="yes"/>
      <point x="462.302" y="449.74"/>
      <point x="367.112419340208" y="558.0"/>
      <point x="233.94" y="558.0" type="curve" smooth="yes"/>
      <point x="100.754251621422" y="558.0"/>
      <point x="5.577999999999999" y="449.74"/>
      <point x="5.577999999999999" y="273.0" type="curve" smooth="yes"/>
      <point x="5.577999999999999" y="97.12"/>
      <point x="100.910913385866" y="-11.14"/>
    </contour>
    <contour>
      <point x="195.036" y="241.22" type="curve"/>
      <point x="210.961999999958" y="377.96"/>
      <point x="228.468" y="417.08"/>
      <point x="259.46399999999994" y="436.4" type="curve" smooth="yes"/>
      <point x="290.46" y="455.58"/>
      <point x="288.769999999958" y="441.65999999999997"/>
      <point x="272.844" y="304.92" type="curve"/>
      <point x="256.939727810612" y="169.04000000000002"/>
      <point x="239.412" y="129.64000000000004"/>
      <point x="208.41600000000003" y="110.46000000000001" type="curve" smooth="yes"/>
      <point x="177.42000000000004" y="91.0"/>
      <point x="179.131727810612" y="105.34"/>
    </contour>
  </outline>
</glyph>
<glyph name="zero.slashold" format="2">
  <advance width="467.88"/>
  <outline>
    <contour>
      <point x="142.70600000000002" y="103.0" type="line"/>
      <point x="321.25600000000003" y="346.86" type="line"/>
      <point x="325.10400000000004" y="443.0" type="line"/>
      <point x="147.06" y="198.72" type="line"/>
    </contour>
    <contour>
      <point x="243.684" y="78.68" type="curve" smooth="yes"/>
      <point x="212.795959183972" y="78.68"/>
      <point x="210.25199999999998" y="117.8"/>
      <point x="210.25199999999998" y="273.0" type="curve" smooth="yes"/>
      <point x="210.25199999999998" y="428.92"/>
      <point x="210.966615384436" y="468.32"/>
      <point x="233.94" y="468.32" type="curve" smooth="yes"/>
      <point x="256.91338461556404" y="468.32"/>
      <point x="257.62800000000004" y="428.92"/>
      <point x="257.62800000000004" y="273.0" type="curve" smooth="yes"/>
      <point x="257.62800000000004" y="117.66"/>
      <point x="259.30213793118804" y="78.68"/>
    </contour>
    <contour>
      <point x="233.94" y="-11.14" type="curve" smooth="yes"/>
      <point x="366.914" y="-11.14"/>
      <point x="462.302" y="97.12"/>
      <point x="462.302" y="273.0" type="curve" smooth="yes"/>
      <point x="462.302" y="449.74"/>
      <point x="366.914" y="558.0"/>
      <point x="233.94" y="558.0" type="curve" smooth="yes"/>
      <point x="100.766" y="558.0"/>
      <point x="5.577999999999999" y="449.74"/>
      <point x="5.577999999999999" y="273.0" type="curve" smooth="yes"/>
      <point x="5.577999999999999" y="97.12"/>
      <point x="100.766" y="-11.14"/>
    </contour>
  </outline>
</glyph>
